<svg width="63" height="30" viewBox="0 0 63 30" fill="none" xmlns="http://www.w3.org/2000/svg">
<rect y="0.5" width="63" height="29" rx="14.5" fill="#002CFB"/>
<path fill-rule="evenodd" clip-rule="evenodd" d="M14.871 9H20.6774L17.129 13.2162H21L12.9355 21L14.871 15.4865L11 15.4865L14.871 9Z" stroke="white" stroke-width="1.2" stroke-linejoin="round"/>
<path d="M27.3807 19.5V9.56H31.5527C32.0007 9.56 32.4114 9.65333 32.7847 9.84C33.1581 10.0267 33.4847 10.274 33.7647 10.582C34.0447 10.89 34.2594 11.2353 34.4087 11.618C34.5581 12.0007 34.6327 12.3927 34.6327 12.794C34.6327 13.3447 34.5067 13.872 34.2547 14.376C34.0121 14.8707 33.6621 15.272 33.2047 15.58C32.7567 15.888 32.2341 16.042 31.6367 16.042H28.9487V19.5H27.3807ZM28.9487 14.656H31.5387C31.8374 14.656 32.0987 14.5767 32.3227 14.418C32.5467 14.25 32.7194 14.026 32.8407 13.746C32.9714 13.466 33.0367 13.1487 33.0367 12.794C33.0367 12.43 32.9621 12.108 32.8127 11.828C32.6634 11.548 32.4674 11.3333 32.2247 11.184C31.9914 11.0253 31.7347 10.946 31.4547 10.946H28.9487V14.656ZM36.1034 19.5V9.56H40.4294C40.8774 9.56 41.2881 9.65333 41.6614 9.84C42.0347 10.0267 42.3567 10.274 42.6274 10.582C42.9074 10.89 43.1221 11.2353 43.2714 11.618C43.4301 12.0007 43.5094 12.3927 43.5094 12.794C43.5094 13.2327 43.4301 13.6527 43.2714 14.054C43.1127 14.4553 42.8841 14.8007 42.5854 15.09C42.2961 15.3793 41.9554 15.5893 41.5634 15.72L43.9014 19.5H42.1374L39.9814 16.042H37.6714V19.5H36.1034ZM37.6714 14.656H40.4154C40.7047 14.656 40.9614 14.572 41.1854 14.404C41.4094 14.236 41.5867 14.012 41.7174 13.732C41.8481 13.4427 41.9134 13.13 41.9134 12.794C41.9134 12.4487 41.8387 12.1407 41.6894 11.87C41.5401 11.59 41.3441 11.366 41.1014 11.198C40.8681 11.03 40.6114 10.946 40.3314 10.946H37.6714V14.656ZM49.4619 19.57C48.7432 19.57 48.0946 19.43 47.5159 19.15C46.9372 18.87 46.4379 18.492 46.0179 18.016C45.5979 17.5307 45.2712 16.9893 45.0379 16.392C44.8139 15.7853 44.7019 15.1647 44.7019 14.53C44.7019 13.8673 44.8232 13.2373 45.0659 12.64C45.3086 12.0333 45.6446 11.4967 46.0739 11.03C46.5032 10.554 47.0072 10.1807 47.5859 9.91C48.1739 9.63 48.8086 9.49 49.4899 9.49C50.1992 9.49 50.8432 9.63467 51.4219 9.924C52.0099 10.2133 52.5092 10.6007 52.9199 11.086C53.3399 11.5713 53.6619 12.1127 53.8859 12.71C54.1192 13.3073 54.2359 13.9187 54.2359 14.544C54.2359 15.2067 54.1146 15.8413 53.8719 16.448C53.6386 17.0453 53.3072 17.582 52.8779 18.058C52.4486 18.5247 51.9399 18.8933 51.3519 19.164C50.7732 19.4347 50.1432 19.57 49.4619 19.57ZM46.2979 14.53C46.2979 14.9967 46.3726 15.4493 46.5219 15.888C46.6712 16.3267 46.8812 16.7187 47.1519 17.064C47.4319 17.4 47.7679 17.666 48.1599 17.862C48.5519 18.058 48.9906 18.156 49.4759 18.156C49.9799 18.156 50.4279 18.0533 50.8199 17.848C51.2119 17.6427 51.5386 17.3673 51.7999 17.022C52.0706 16.6673 52.2759 16.2753 52.4159 15.846C52.5559 15.4073 52.6259 14.9687 52.6259 14.53C52.6259 14.0633 52.5512 13.6153 52.4019 13.186C52.2619 12.7473 52.0519 12.36 51.7719 12.024C51.4919 11.6787 51.1559 11.408 50.7639 11.212C50.3812 11.016 49.9519 10.918 49.4759 10.918C48.9719 10.918 48.5239 11.0207 48.1319 11.226C47.7399 11.4313 47.4086 11.7067 47.1379 12.052C46.8672 12.3973 46.6572 12.7847 46.5079 13.214C46.3679 13.6433 46.2979 14.082 46.2979 14.53Z" fill="white"/>
</svg>
